<?xml version="1.0" standalone="no"?>
<!DOCTYPE svg PUBLIC "-//W3C//DTD SVG 20010904//EN"
 "http://www.w3.org/TR/2001/REC-SVG-20010904/DTD/svg10.dtd">
<svg version="1.0" xmlns="http://www.w3.org/2000/svg"
 width="653.000000pt" height="470.000000pt" viewBox="0 0 653.000000 470.000000"
 preserveAspectRatio="xMidYMid meet">
<metadata>
Created by potrace 1.16, written by Peter Selinger 2001-2019
</metadata>
<g transform="translate(0.000000,470.000000) scale(0.100000,-0.100000)"
fill="#000000" stroke="none">
<path d="M0 2350 l0 -2350 3265 0 3265 0 0 2350 0 2350 -3265 0 -3265 0 0
-2350z m3995 600 c71 -27 135 -69 163 -107 l20 -28 -81 -52 c-81 -53 -97 -60
-97 -45 0 14 -82 50 -140 63 -103 22 -222 -11 -260 -73 -34 -56 -22 -126 30
-165 22 -17 111 -40 223 -58 231 -36 341 -109 382 -250 21 -69 16 -198 -8
-255 -58 -134 -190 -213 -378 -227 l-89 -6 0 102 0 101 53 0 c158 0 259 93
227 210 -21 77 -72 100 -325 146 -98 17 -192 56 -242 98 -17 15 -46 54 -62 88
-27 53 -31 72 -31 139 0 172 90 283 270 332 92 24 261 18 345 -13z m-1130 -25
c205 -53 331 -196 379 -428 20 -94 20 -173 2 -269 -36 -188 -130 -319 -285
-397 -80 -41 -159 -51 -418 -51 l-243 0 0 98 1 97 93 63 c51 34 96 62 99 62 4
0 7 -25 7 -56 l0 -57 153 6 c161 5 197 13 263 58 94 64 138 175 132 333 -3 91
-7 109 -36 169 -39 78 -93 128 -169 157 -45 17 -78 20 -198 20 l-145 0 0 -66
c0 -36 -4 -64 -8 -62 -5 2 -50 28 -100 58 l-92 54 0 113 0 113 253 0 c195 0
266 -4 312 -15z m-402 -483 l158 -90 -73 -45 c-177 -108 -243 -146 -249 -139
-4 4 -10 90 -14 191 -6 152 -4 183 7 179 7 -3 84 -46 171 -96z m1077 -435
c138 -73 87 -287 -68 -287 -164 0 -218 214 -72 288 56 28 86 28 140 -1z"/>
</g>
</svg>
